<svg xmlns="http://www.w3.org/2000/svg" version="1.1" xmlns:xlink="http://www.w3.org/1999/xlink" xmlns:svgjs="http://svgjs.com/svgjs" width="1440" height="560" preserveAspectRatio="none" viewBox="0 0 1440 560"><g mask="url(&quot;#SvgjsMask1007&quot;)" fill="none"><rect width="1440" height="560" x="0" y="0" fill="rgba(77, 77, 79, 1)"></rect><path d="M1464 560L0 560 L0 307.13Q87.83 274.96, 120 362.79Q166.7 289.5, 240 336.2Q250.99 275.19, 312 286.18Q381.69 235.87, 432 305.56Q507.57 261.13, 552 336.7Q619.26 283.96, 672 351.22Q742.95 302.17, 792 373.12Q811.73 320.85, 864 340.58Q932.31 288.89, 984 357.2Q1027.18 280.38, 1104 323.56Q1189.29 288.85, 1224 374.13Q1252.53 282.66, 1344 311.19Q1413.24 260.44, 1464 329.68z" fill="rgba(109, 111, 113, 1)"></path><path d="M1464 560L0 560 L0 420.18Q39.61 339.79, 120 379.4Q210.85 350.25, 240 441.09Q274.37 355.46, 360 389.83Q405.42 315.25, 480 360.67Q524.89 333.56, 552 378.45Q594.12 348.57, 624 390.69Q671.64 318.33, 744 365.97Q810.33 312.3, 864 378.63Q906.98 349.61, 936 392.58Q982.61 367.19, 1008 413.79Q1080.37 366.15, 1128 438.52Q1128.56 367.07, 1200 367.63Q1228.58 324.21, 1272 352.79Q1349.66 310.45, 1392 388.11Q1421.02 345.13, 1464 374.16z" fill="rgba(136, 137, 139, 1)"></path><path d="M1512 560L0 560 L0 510.76Q23.14 413.9, 120 437.04Q163.17 408.21, 192 451.37Q238.1 425.47, 264 471.57Q320.04 455.61, 336 511.65Q359.48 463.13, 408 486.6Q410.86 417.46, 480 420.31Q545.16 365.48, 600 430.64Q670.66 381.31, 720 451.97Q798.41 410.38, 840 488.8Q849.85 426.64, 912 436.49Q953.1 405.59, 984 446.69Q1049.45 440.14, 1056 505.6Q1100.88 430.49, 1176 475.37Q1215.97 395.34, 1296 435.31Q1346.47 413.78, 1368 464.26Q1414.78 439.04, 1440 485.82Q1483.19 457.01, 1512 500.21z" fill="rgba(196, 198, 200, 1)"></path><path d="M1464 560L0 560 L0 570.89Q27.79 478.68, 120 506.47Q163.85 478.32, 192 522.17Q263.33 473.5, 312 544.82Q322.96 483.78, 384 494.73Q457.5 448.24, 504 521.74Q558.93 456.67, 624 511.6Q652.72 468.32, 696 497.04Q752.54 481.58, 768 538.12Q848.03 498.15, 888 578.19Q914.68 532.88, 960 559.56Q983.18 510.74, 1032 533.93Q1074.66 504.59, 1104 547.25Q1179.82 503.07, 1224 578.88Q1274.3 509.17, 1344 559.47Q1378.12 473.59, 1464 507.71z" fill="white"></path></g><defs><mask id="SvgjsMask1007"><rect width="1440" height="560" fill="#ffffff"></rect></mask></defs></svg>