<svg width="385" height="116" viewBox="0 0 385 116" fill="none" xmlns="http://www.w3.org/2000/svg">
    <path d="M345 0L248.005 68V115.5L385 95L345 0Z" fill="url(#paint0_linear_8_26)"/>
    <path d="M309 62C309.938 67 316 77.5 300 83C293.096 83 287.5 79.5229 287.5 74C285 67 288.096 56.5 295 56.5C301.904 56.5 307.5 54 309 62Z" fill="#D9D9D9"/>
    <line x1="289.482" y1="38.8654" x2="308.482" y2="106.865" stroke="white"/>
    <line x1="247.879" y1="77.4851" x2="231.879" y2="73.4851" stroke="#FFFAFA"/>
    <line x1="247.851" y1="104.477" x2="231.851" y2="99.4772" stroke="#FFFCFC"/>
    <line x1="231.5" y1="72.9815" x2="232.5" y2="99.9815" stroke="#FFFBFB"/>
    <line x1="352.089" y1="17.4919" x2="330.089" y2="21.4919" stroke="#FFFEFE"/>
    <line x1="330.456" y1="20.7955" x2="356.456" y2="78.7955" stroke="#FFFEFE"/>
    <line x1="356.023" y1="77.5005" x2="378.023" y2="78.5005" stroke="#FFFEFE"/>
    <path d="M30.525 49.16C29.645 47.5467 28.435 46.3183 26.895 45.475C25.355 44.6317 23.5583 44.21 21.505 44.21C19.2317 44.21 17.215 44.7233 15.455 45.75C13.695 46.7767 12.32 48.2433 11.33 50.15C10.34 52.0567 9.845 54.2567 9.845 56.75C9.845 59.3167 10.34 61.5533 11.33 63.46C12.3567 65.3667 13.7683 66.8333 15.565 67.86C17.3617 68.8867 19.4517 69.4 21.835 69.4C24.7683 69.4 27.17 68.63 29.04 67.09C30.91 65.5133 32.1383 63.3317 32.725 60.545H19.525V54.66H40.315V61.37C39.8017 64.0467 38.7017 66.5217 37.015 68.795C35.3283 71.0683 33.1467 72.9017 30.47 74.295C27.83 75.6517 24.86 76.33 21.56 76.33C17.8567 76.33 14.5017 75.505 11.495 73.855C8.525 72.1683 6.17833 69.84 4.455 66.87C2.76833 63.9 1.925 60.5267 1.925 56.75C1.925 52.9733 2.76833 49.6 4.455 46.63C6.17833 43.6233 8.525 41.295 11.495 39.645C14.5017 37.9583 17.8383 37.115 21.505 37.115C25.8317 37.115 29.59 38.1783 32.78 40.305C35.97 42.395 38.17 45.3467 39.38 49.16H30.525ZM64.9318 76.385C61.3385 76.385 58.0385 75.5417 55.0318 73.855C52.0251 72.1683 49.6418 69.84 47.8818 66.87C46.1218 63.8633 45.2418 60.4717 45.2418 56.695C45.2418 52.955 46.1218 49.6 47.8818 46.63C49.6418 43.6233 52.0251 41.2767 55.0318 39.59C58.0385 37.9033 61.3385 37.06 64.9318 37.06C68.5618 37.06 71.8618 37.9033 74.8318 39.59C77.8385 41.2767 80.2035 43.6233 81.9268 46.63C83.6868 49.6 84.5668 52.955 84.5668 56.695C84.5668 60.4717 83.6868 63.8633 81.9268 66.87C80.2035 69.84 77.8385 72.1683 74.8318 73.855C71.8251 75.5417 68.5251 76.385 64.9318 76.385ZM64.9318 69.51C67.2418 69.51 69.2768 68.9967 71.0368 67.97C72.7968 66.9067 74.1718 65.4033 75.1618 63.46C76.1518 61.5167 76.6468 59.2617 76.6468 56.695C76.6468 54.1283 76.1518 51.8917 75.1618 49.985C74.1718 48.0417 72.7968 46.5567 71.0368 45.53C69.2768 44.5033 67.2418 43.99 64.9318 43.99C62.6218 43.99 60.5685 44.5033 58.7718 45.53C57.0118 46.5567 55.6368 48.0417 54.6468 49.985C53.6568 51.8917 53.1618 54.1283 53.1618 56.695C53.1618 59.2617 53.6568 61.5167 54.6468 63.46C55.6368 65.4033 57.0118 66.9067 58.7718 67.97C60.5685 68.9967 62.6218 69.51 64.9318 69.51ZM114.935 68.685H99.6454L97.1154 76H89.0304L102.835 37.555H111.8L125.605 76H117.465L114.935 68.685ZM112.845 62.525L107.29 46.465L101.735 62.525H112.845ZM139.566 69.895H152.216V76H131.866V37.61H139.566V69.895ZM161.62 76.385C160.226 76.385 159.071 75.9633 158.155 75.12C157.275 74.24 156.835 73.1583 156.835 71.875C156.835 70.5917 157.275 69.5283 158.155 68.685C159.071 67.805 160.226 67.365 161.62 67.365C162.976 67.365 164.095 67.805 164.975 68.685C165.855 69.5283 166.295 70.5917 166.295 71.875C166.295 73.1583 165.855 74.24 164.975 75.12C164.095 75.9633 162.976 76.385 161.62 76.385ZM197.137 68.685H181.847L179.317 76H171.232L185.037 37.555H194.002L207.807 76H199.667L197.137 68.685ZM195.047 62.525L189.492 46.465L183.937 62.525H195.047ZM221.767 37.61V76H214.067V37.61H221.767Z" fill="#F5163F"/>
    <defs>
        <linearGradient id="paint0_linear_8_26" x1="328" y1="53.5" x2="237.5" y2="127.5" gradientUnits="userSpaceOnUse">
            <stop stop-color="#3B833A"/>
            <stop offset="1" stop-color="#F5F5F5"/>
        </linearGradient>
    </defs>
</svg>
